<?xml version="1.0" encoding="utf-8"?>
<svg version="1.1" xmlns:xlink="http://www.w3.org/1999/xlink" width="10px" height="837px" preserveAspectRatio="xMidYMin meet" viewBox="1246 3704  8 837" xmlns="http://www.w3.org/2000/svg">
  <path d="M 1209 3709  L 1245 3709  A 5 5 0 0 1 1250 3714 L 1250 4531  A 5 5 0 0 0 1255 4536 L 1305 4536  " stroke-width="2" stroke="#d9001b" fill="none" />
  <path d="M 1209 3712  L 1209 3706  L 1203 3706  L 1203 3712  L 1209 3712  Z M 1207 3710  L 1205 3710  L 1205 3708  L 1207 3708  L 1207 3710  Z M 1299.89289321881 4531.70710678119  L 1304.18578643763 4536  L 1299.89289321881 4540.29289321881  L 1301.30710678119 4541.70710678119  L 1306.30710678119 4536.70710678119  L 1307.01421356237 4536  L 1306.30710678119 4535.29289321881  L 1301.30710678119 4530.29289321881  L 1299.89289321881 4531.70710678119  Z " fill-rule="nonzero" fill="#d9001b" stroke="none" />
</svg>